<?xml version="1.0" encoding="utf-8" ?>
<svg baseProfile="tiny" height="100%" shape-rendering="crispEdges" version="1.2" width="100%" xmlns="http://www.w3.org/2000/svg" xmlns:ev="http://www.w3.org/2001/xml-events" xmlns:xlink="http://www.w3.org/1999/xlink"><defs /><g><path d="M 109.14299774169922 136.69700622558594 L 110.15747833251953 136.7812271118164 L 111.17194366455078 136.8730239868164 L 112.18638610839844 136.97178649902344 L 113.20079040527344 137.07689666748047 L 114.21517181396484 137.187744140625 L 115.22950744628906 137.30371856689453 L 116.2437973022461 137.4242172241211 L 117.25804138183594 137.54862213134766 L 118.27222442626953 137.67632293701172 L 119.2863540649414 137.80670928955078 L 120.3004150390625 137.93917846679688 L 121.31440734863281 138.07310485839844 L 122.32831573486328 138.2078857421875 L 123.34214782714844 138.34290313720703 L 124.35589599609375 138.47755432128906 L 125.36954498291016 138.6112289428711 L 126.38310241699219 138.74331665039062 L 127.39655303955078 138.87319946289062 L 128.40989685058594 139.0002670288086 L 129.42312622070312 139.12391662597656 L 130.4362335205078 139.2435302734375 L 131.44923400878906 139.3584976196289 L 132.4620819091797 139.46820831298828 L 133.4748077392578 139.57205963134766 L 134.48739624023438 139.66942596435547 L 135.4998321533203 139.75970458984375 L 136.5121307373047 139.84229278564453 L 137.52426147460938 139.91655731201172 L 138.53623962402344 139.9819107055664 L 139.54803466796875 140.03772735595703 L 140.55967712402344 140.08340454101562 L 141.57113647460938 140.11832427978516 L 142.58241271972656 140.14188385009766 L 143.59349060058594 140.1534652709961 L 144.60440063476562 140.15245819091797 L 145.61509704589844 140.1382598876953 L 146.62559509277344 140.1102523803711 L 147.63587951660156 140.06781768798828 L 148.6459503173828 140.01036071777344 L 149.6558074951172 139.93726348876953 L 150.66543579101562 139.84790802001953 L 151.67483520507812 139.74169921875 L 152.6840057373047 139.61801147460938 L 153.7008514404297 139.47472381591797 L 154.7144012451172 139.31295013427734 L 155.7244415283203 139.13286590576172 L 156.73077392578125 138.93468475341797 L 157.73316955566406 138.7185821533203 L 158.7313995361328 138.4847640991211 L 159.72528076171875 138.23340606689453 L 160.71458435058594 137.9647216796875 L 161.69911193847656 137.67888641357422 L 162.67861938476562 137.37610626220703 L 163.6529083251953 137.05655670166016 L 164.62176513671875 136.72045135498047 L 165.58499145507812 136.3679656982422 L 166.54234313964844 135.99929809570312 L 167.49362182617188 135.6146469116211 L 168.43862915039062 135.21420288085938 L 169.3771209716797 134.79814910888672 L 170.30889892578125 134.36668395996094 L 171.23374938964844 133.92001342773438 L 172.15145874023438 133.4582977294922 L 173.0618133544922 132.9817657470703 L 173.964599609375 132.49058532714844 L 174.85958862304688 131.98497009277344 L 175.74659729003906 131.465087890625 L 176.62538146972656 130.93115234375 L 177.49574279785156 130.3833465576172 L 178.3574676513672 129.82186889648438 L 179.2103271484375 129.24688720703125 L 180.0541229248047 128.65863037109375 L 180.88864135742188 128.05728149414062 L 181.7136688232422 127.44302368164062 L 182.52899169921875 126.8160400390625 L 183.33438110351562 126.17654418945312 L 184.12962341308594 125.52471923828125 L 184.91453552246094 124.86076354980469 L 185.68887329101562 124.18486022949219 L 186.4524383544922 123.49720764160156 L 187.2050018310547 122.79800415039062 L 187.94650268554688 122.08761596679688 L 188.67697143554688 121.36643981933594 L 189.39637756347656 120.6346435546875 L 190.10472106933594 119.8924560546875 L 190.8019561767578 119.14006042480469 L 191.48805236816406 118.37765502929688 L 192.16297912597656 117.60545349121094 L 192.8267364501953 116.82363891601562 L 193.47926330566406 116.03240966796875 L 194.12054443359375 115.23197937011719 L 194.7505645751953 114.42253112792969 L 195.36929321289062 113.60427856445312 L 195.9766845703125 112.77740478515625 L 196.57273864746094 111.94210815429688 L 197.15740966796875 111.09860229492188 L 197.7306671142578 110.24708557128906 L 198.29249572753906 109.38774108886719 L 198.84286499023438 108.52076721191406 L 199.38174438476562 107.64637756347656 L 199.90911865234375 106.7647705078125 L 200.42494201660156 105.87612915039062 L 200.92921447753906 104.98066711425781 L 201.421875 104.07858276367188 L 201.90292358398438 103.17005920410156 L 202.372314453125 102.25531005859375 L 202.8300323486328 101.33453369140625 L 203.2760467529297 100.40791320800781 L 203.7103271484375 99.47566223144531 L 204.1328582763672 98.53797912597656 L 204.54359436035156 97.59506225585938 L 204.94252014160156 96.64710998535156 L 205.32960510253906 95.69430541992188 L 205.704833984375 94.73686218261719 L 206.0681610107422 93.77497863769531 L 206.41957092285156 92.80885314941406 L 206.759033203125 91.83868408203125 L 207.08651733398438 90.86466979980469 L 207.40199279785156 89.88700866699219 L 207.7174072265625 88.86466979980469 L 208.01927185058594 87.83676147460938 L 208.30667114257812 86.80366516113281 L 208.57861328125 85.76580810546875 L 208.8341827392578 84.72355651855469 L 209.07241821289062 83.67730712890625 L 209.29237365722656 82.62745666503906 L 209.4930877685547 81.57438659667969 L 209.67361450195312 80.51850891113281 L 209.83302307128906 79.460205078125 L 209.9703369140625 78.39985656738281 L 210.08462524414062 77.33787536621094 L 210.1749267578125 76.27464294433594 L 210.24029541015625 75.21055603027344 L 210.27978515625 74.14601135253906 L 210.2924346923828 73.08140563964844 L 210.27731323242188 72.01710510253906 L 210.23345947265625 70.95352172851562 L 210.159912109375 69.89105224609375 L 210.05575561523438 68.830078125 L 209.9199981689453 67.77101135253906 L 209.74794006347656 66.69364929199219 L 209.54348754882812 65.62332153320312 L 209.30767822265625 64.56024169921875 L 209.04151916503906 63.50468444824219 L 208.7460479736328 62.456878662109375 L 208.42225646972656 61.41705322265625 L 208.07119750976562 60.385467529296875 L 207.69387817382812 59.36236572265625 L 207.2913055419922 58.34797668457031 L 206.86451721191406 57.342559814453125 L 206.41453552246094 56.346343994140625 L 205.94236755371094 55.35955810546875 L 205.4490509033203 54.382476806640625 L 204.9355926513672 53.41532897949219 L 204.40301513671875 52.458343505859375 L 203.85235595703125 51.51177978515625 L 203.2846221923828 50.57588195800781 L 202.70082092285156 49.65086364746094 L 202.1020050048828 48.73701477050781 L 201.53799438476562 47.904541015625 L 200.9624786376953 47.08113098144531 L 200.37559509277344 46.26673889160156 L 199.77755737304688 45.46138000488281 L 199.1685333251953 44.66499328613281 L 198.54867553710938 43.877593994140625 L 197.91819763183594 43.09913635253906 L 197.2772674560547 42.329620361328125 L 196.6260528564453 41.56901550292969 L 195.96475219726562 40.81730651855469 L 195.29351806640625 40.074462890625 L 194.612548828125 39.34046936035156 L 193.92201232910156 38.61531066894531 L 193.2220916748047 37.89897155761719 L 192.51296997070312 37.19140625 L 191.79481506347656 36.49263000488281 L 191.06781005859375 35.80259704589844 L 190.33213806152344 35.121307373046875 L 189.58798217773438 34.44871520996094 L 188.83551025390625 33.784820556640625 L 188.07489013671875 33.129608154296875 L 187.3063201904297 32.4830322265625 L 186.52996826171875 31.8450927734375 L 185.74603271484375 31.215774536132812 L 184.9546661376953 30.59503173828125 L 184.1560516357422 29.982864379882812 L 183.35037231445312 29.379257202148438 L 182.53781127929688 28.7841796875 L 181.7185516357422 28.197616577148438 L 180.8927459716797 27.619537353515625 L 180.06060791015625 27.0499267578125 L 179.2222900390625 26.488784790039062 L 178.3779754638672 25.936065673828125 L 177.52784729003906 25.391754150390625 L 176.67208862304688 24.8558349609375 L 175.8108673095703 24.328277587890625 L 174.94436645507812 23.80908203125 L 174.07276916503906 23.2982177734375 L 173.1962432861328 22.795669555664062 L 172.3149871826172 22.301406860351562 L 171.4291534423828 21.815414428710938 L 170.53892517089844 21.337677001953125 L 169.64450073242188 20.8681640625 L 168.7460479736328 20.4068603515625 L 167.84373474121094 19.953765869140625 L 166.93775939941406 19.508819580078125 L 166.0282745361328 19.072036743164062 L 165.11549377441406 18.643386840820312 L 164.19955444335938 18.22283935546875 L 163.28067016601562 17.810394287109375 L 162.35899353027344 17.406005859375 L 161.40872192382812 16.9984130859375 L 160.45437622070312 16.59881591796875 L 159.4960479736328 16.207565307617188 L 158.5338134765625 15.825103759765625 L 157.56776428222656 15.451797485351562 L 156.5979461669922 15.088058471679688 L 155.6244659423828 14.734283447265625 L 154.6473846435547 14.390869140625 L 153.66677856445312 14.058197021484375 L 152.6827392578125 13.736679077148438 L 151.69532775878906 13.42669677734375 L 150.70465087890625 13.128662109375 L 149.71075439453125 12.842971801757812 L 148.71372985839844 12.570022583007812 L 147.71365356445312 12.310195922851562 L 146.71060180664062 12.06390380859375 L 145.70465087890625 11.83154296875 L 144.69589233398438 11.613494873046875 L 143.68438720703125 11.41015625 L 142.6702117919922 11.221954345703125 L 141.65345764160156 11.04925537109375 L 140.6342010498047 10.8924560546875 L 139.6125030517578 10.751968383789062 L 138.58847045898438 10.628189086914062 L 137.56214904785156 10.521499633789062 L 136.53363037109375 10.43231201171875 L 135.5030059814453 10.361007690429688 L 134.43032836914062 10.30657958984375 L 133.35682678222656 10.272109985351562 L 132.2828826904297 10.257568359375 L 131.20883178710938 10.262893676757812 L 130.1350555419922 10.288040161132812 L 129.06192016601562 10.332962036132812 L 127.98977661132812 10.397598266601562 L 126.91899108886719 10.481918334960938 L 125.84993743896484 10.58587646484375 L 124.78296661376953 10.70941162109375 L 123.71844482421875 10.85247802734375 L 122.65673828125 11.015029907226562 L 121.59820556640625 11.197036743164062 L 120.54322052001953 11.398422241210938 L 119.49214172363281 11.619140625 L 118.44532775878906 11.859161376953125 L 117.40314483642578 12.118423461914062 L 116.36595916748047 12.396896362304688 L 115.3341293334961 12.69451904296875 L 114.30802154541016 13.01123046875 L 113.28800201416016 13.347015380859375 L 112.3047103881836 13.690933227539062 L 111.32832336425781 14.05206298828125 L 110.35888671875 14.430099487304688 L 109.396484375 14.824722290039062 L 108.4411849975586 15.235626220703125 L 107.49304962158203 15.66253662109375 L 106.5521469116211 16.1051025390625 L 105.6185531616211 16.563064575195312 L 104.69233703613281 17.036087036132812 L 103.7735595703125 17.523880004882812 L 102.86228942871094 18.026138305664062 L 101.95860290527344 18.542556762695312 L 101.06256103515625 19.072830200195312 L 100.17424011230469 19.616653442382812 L 99.293701171875 20.173721313476562 L 98.4210205078125 20.743743896484375 L 97.55625915527344 21.326385498046875 L 96.69949340820312 21.921371459960938 L 95.85078430175781 22.52838134765625 L 95.01020812988281 23.147109985351562 L 94.17782592773438 23.777267456054688 L 93.35371398925781 24.418548583984375 L 92.53793334960938 25.070632934570312 L 91.73055267333984 25.73321533203125 L 90.93165588378906 26.406021118164062 L 90.14128875732422 27.088714599609375 L 89.35953521728516 27.780990600585938 L 88.58646392822266 28.482574462890625 L 87.82213592529297 29.193145751953125 L 87.0666275024414 29.912384033203125 L 86.31999969482422 30.6400146484375 L 85.5688705444336 31.389816284179688 L 84.82626342773438 32.14909362792969 L 84.09259033203125 32.91778564453125 L 83.36827850341797 33.69587707519531 L 82.65373229980469 34.48329162597656 L 81.94937133789062 35.280029296875 L 81.25560760498047 36.08604431152344 L 80.57286834716797 36.901275634765625 L 79.90156555175781 37.7257080078125 L 79.24211120605469 38.55931091308594 L 78.59491729736328 39.40202331542969 L 77.96041870117188 40.253814697265625 L 77.3390121459961 41.114654541015625 L 76.73112487792969 41.98451232910156 L 76.13716888427734 42.86332702636719 L 75.55756378173828 43.751068115234375 L 74.99272155761719 44.64772033691406 L 74.44306182861328 45.55322265625 L 73.90899658203125 46.467529296875 L 73.39094543457031 47.39064025878906 L 72.88932800292969 48.322479248046875 L 72.40455627441406 49.263031005859375 L 71.93704223632812 50.21223449707031 L 71.48721313476562 51.17008972167969 L 71.05547332763672 52.13652038574219 L 70.64225006103516 53.11151123046875 L 70.24795532226562 54.09501647949219 L 69.87300109863281 55.087005615234375 L 69.5418701171875 56.01759338378906 L 69.2290267944336 56.95257568359375 L 68.93431854248047 57.89176940917969 L 68.65760040283203 58.8349609375 L 68.39871215820312 59.781982421875 L 68.15752410888672 60.73260498046875 L 67.93386840820312 61.68666076660156 L 67.72760772705078 62.64393615722656 L 67.53858947753906 63.60426330566406 L 67.36666870117188 64.56741333007812 L 67.21168518066406 65.53321838378906 L 67.07350158691406 66.50146484375 L 66.95195770263672 67.47196960449219 L 66.84691619873047 68.44453430175781 L 66.75822448730469 69.41896057128906 L 66.68572998046875 70.39506530761719 L 66.62928771972656 71.37263488769531 L 66.5887451171875 72.35148620605469 L 66.56395721435547 73.33143615722656 L 66.55477142333984 74.312255859375 L 66.56104278564453 75.29377746582031 L 66.5826187133789 76.27580261230469 L 66.61934661865234 77.25813293457031 L 66.67108917236328 78.24057006835938 L 66.73768615722656 79.22293090820312 L 66.8189926147461 80.20500183105469 L 66.91485595703125 81.18661499023438 L 67.02513885498047 82.16754150390625 L 67.1496810913086 83.14761352539062 L 67.288330078125 84.12661743164062 L 67.44094848632812 85.1043701171875 L 67.60738372802734 86.08067321777344 L 67.78749084472656 87.05534362792969 L 67.98110961914062 88.02816772460938 L 68.18809509277344 88.99894714355469 L 68.4083023071289 89.96751403808594 L 68.6415786743164 90.93365478515625 L 68.88777923583984 91.89717102050781 L 69.1467514038086 92.85787963867188 L 69.41835021972656 93.81556701660156 L 69.7024154663086 94.77006530761719 L 69.99881744384766 95.72116088867188 L 70.30738830566406 96.66867065429688 L 70.62799072265625 97.61238098144531 L 70.96046447753906 98.55210876464844 L 71.30467224121094 99.4876708984375 L 71.66046905517578 100.41885375976562 L 72.0276870727539 101.345458984375 L 72.40618896484375 102.26731872558594 L 72.79582977294922 103.1842041015625 L 73.19644927978516 104.095947265625 L 73.60791015625 105.00234985351562 L 74.0300521850586 105.9031982421875 L 74.46273803710938 106.79830932617188 L 74.90580749511719 107.6875 L 75.35911560058594 108.570556640625 L 75.82251739501953 109.44728088378906 L 76.29586029052734 110.3175048828125 L 76.77899932861328 111.18101501464844 L 77.28591918945312 112.05787658691406 L 77.80758666992188 112.92774963378906 L 78.34383392333984 113.79019165039062 L 78.89452362060547 114.64476013183594 L 79.45948791503906 115.49098205566406 L 80.03858947753906 116.32841491699219 L 80.63166046142578 117.1566162109375 L 81.23855590820312 117.97514343261719 L 81.85912322998047 118.78353881835938 L 82.49320220947266 119.58135986328125 L 83.1406478881836 120.36814880371094 L 83.80130004882812 121.14347839355469 L 84.47501373291016 121.90687561035156 L 85.16162872314453 122.65789794921875 L 85.86099243164062 123.39610290527344 L 86.57295989990234 124.12104797363281 L 87.29736328125 124.83226013183594 L 88.03406524658203 125.52931213378906 L 88.78289794921875 126.21176147460938 L 89.5437240600586 126.87913513183594 L 90.31637573242188 127.531005859375 L 91.1007080078125 128.1669158935547 L 91.89656066894531 128.7864227294922 L 92.70379638671875 129.38906860351562 L 93.5222396850586 129.9744110107422 L 94.35175323486328 130.5419921875 L 95.19218444824219 131.0913848876953 L 96.04337310791016 131.6221160888672 L 96.90516662597656 132.13375854492188 L 97.77741241455078 132.6258544921875 L 98.65995788574219 133.0979461669922 L 99.55265045166016 133.54959106445312 L 100.4553451538086 133.9803466796875 L 101.36787414550781 134.3897705078125 L 102.29008483886719 134.77739715576172 L 103.22183990478516 135.14278411865234 L 104.16297149658203 135.48548889160156 L 105.11333465576172 135.8050537109375 L 106.07276916503906 136.10104370117188 L 107.04113006591797 136.37299346923828 L 108.01825714111328 136.62046813964844 L 109.00399780273438 136.84300994873047 Z" fill="#FF5733" stroke="none" stroke-width="2" /><path d="M 140.84300231933594 250.4250078201294 L 141.4567413330078 249.84084129333496 L 142.0948028564453 249.26244926452637 L 142.75631713867188 248.6896743774414 L 143.44049072265625 248.1223611831665 L 144.146484375 247.5603542327881 L 144.87344360351562 247.00349617004395 L 145.62057495117188 246.45163249969482 L 146.38702392578125 245.90460586547852 L 147.17196655273438 245.36226081848145 L 147.97457885742188 244.82444190979004 L 148.7940216064453 244.29099082946777 L 149.62945556640625 243.76175498962402 L 150.48007202148438 243.23657608032227 L 151.34503173828125 242.7152976989746 L 152.2235107421875 242.19776725769043 L 153.1146697998047 241.68382453918457 L 154.01766967773438 241.17331504821777 L 154.93170166015625 240.66608238220215 L 155.85592651367188 240.1619701385498 L 156.7895050048828 239.66082572937012 L 157.73162841796875 239.16248893737793 L 158.6814422607422 238.66680526733398 L 159.63812255859375 238.1736183166504 L 160.60086059570312 237.6827735900879 L 161.56878662109375 237.1941146850586 L 162.54110717773438 236.70748329162598 L 163.51698303222656 236.22272491455078 L 164.49557495117188 235.73968315124512 L 165.47604370117188 235.25820350646973 L 166.45758056640625 234.7781276702881 L 167.43936157226562 234.29930114746094 L 168.42051696777344 233.8215675354004 L 169.40025329589844 233.34477043151855 L 170.3777313232422 232.86875534057617 L 171.35211181640625 232.39336395263672 L 172.32257080078125 231.91844177246094 L 173.2882843017578 231.44383239746094 L 174.2484130859375 230.9693775177002 L 175.20211791992188 230.49492645263672 L 176.14859008789062 230.02031707763672 L 177.0869903564453 229.5453987121582 L 178.0164794921875 229.07001113891602 L 178.93624877929688 228.59400177001953 L 179.84544372558594 228.1172103881836 L 180.74325561523438 227.63948440551758 L 181.6288299560547 227.1606674194336 L 182.50135803222656 226.68060302734375 L 183.36000061035156 226.19913482666016 L 184.2039337158203 225.71610641479492 L 185.03231811523438 225.23136138916016 L 185.8443145751953 224.74474716186523 L 186.63912963867188 224.256103515625 L 187.4158935546875 223.76527786254883 L 188.17379760742188 223.27210998535156 L 188.91200256347656 222.77644729614258 L 189.62966918945312 222.27812957763672 L 190.3260040283203 221.77700805664062 L 191.11180114746094 222.65816116333008 L 191.88150024414062 223.52890396118164 L 192.63583374023438 224.38950729370117 L 193.37551879882812 225.240234375 L 194.101318359375 226.08135223388672 L 194.81398010253906 226.9131202697754 L 195.5142364501953 227.73580932617188 L 196.20281982421875 228.54968643188477 L 196.8804931640625 229.35501098632812 L 197.5479736328125 230.1520538330078 L 198.2060089111328 230.9410800933838 L 198.8553466796875 231.72235298156738 L 199.49673461914062 232.49613761901855 L 200.1309051513672 233.2627010345459 L 200.7585906982422 234.02230644226074 L 201.3805389404297 234.7752227783203 L 201.9975128173828 235.52171325683594 L 202.6102294921875 236.2620449066162 L 203.21942138671875 236.99648094177246 L 203.8258514404297 237.72528839111328 L 204.43026733398438 238.44873428344727 L 205.03338623046875 239.1670799255371 L 205.63595581054688 239.88059425354004 L 206.2387237548828 240.58954048156738 L 206.84243774414062 241.29418563842773 L 207.44781494140625 241.99479484558105 L 208.0556182861328 242.6916332244873 L 208.66659545898438 243.38496589660645 L 209.28146362304688 244.07505989074707 L 209.90098571777344 244.76218032836914 L 210.52587890625 245.44659042358398 L 211.1569061279297 246.1285572052002 L 211.7947998046875 246.80834770202637 L 212.4403076171875 247.48622512817383 L 213.0941619873047 248.16245555877686 L 213.75711059570312 248.8373041152954 L 214.4298858642578 249.5110378265381 L 215.11325073242188 250.1839199066162 L 215.80792236328125 250.8562183380127 L 216.5146484375 251.52819633483887 L 217.2341766357422 252.20012092590332 L 217.9672393798828 252.8722562789917 L 218.71458435058594 253.54486846923828 L 219.47695922851562 254.21822357177734 L 220.25509643554688 254.89258670806885 L 221.04974365234375 255.56822299957275 L 221.8616180419922 256.2453980445862 L 222.69149780273438 256.9243769645691 L 223.54010009765625 257.60542583465576 L 224.40817260742188 258.28881001472473 L 225.2964630126953 258.97479486465454 L 226.20570373535156 259.6636459827423 L 227.13662719726562 260.3556283712387 L 228.08999633789062 261.051008105278 L 228.02581787109375 259.8970136642456 L 227.95462036132812 258.7603633403778 L 227.8763427734375 257.64045238494873 L 227.79098510742188 256.5366759300232 L 227.69850158691406 255.44842910766602 L 227.59884643554688 254.37510776519775 L 227.4919891357422 253.31610679626465 L 227.37791442871094 252.27082061767578 L 227.25656127929688 251.23864650726318 L 227.12791442871094 250.21897792816162 L 226.99192810058594 249.2112112045288 L 226.84857177734375 248.21474075317383 L 226.6977996826172 247.22896194458008 L 226.5395965576172 246.25327110290527 L 226.37393188476562 245.2870635986328 L 226.20074462890625 244.32973289489746 L 226.02001953125 243.38067436218262 L 225.83172607421875 242.4392852783203 L 225.63580322265625 241.50496101379395 L 225.4322509765625 240.57709312438965 L 225.22100830078125 239.6550807952881 L 225.00205993652344 238.73831748962402 L 224.77536010742188 237.8262004852295 L 224.54086303710938 236.91812133789062 L 224.29856872558594 236.0134792327881 L 224.0484161376953 235.11166763305664 L 223.7903594970703 234.21208000183105 L 223.52439880371094 233.314115524292 L 223.25047302246094 232.4171657562256 L 222.96856689453125 231.52062797546387 L 222.6786346435547 230.62389755249023 L 222.38063049316406 229.72636795043945 L 222.0745391845703 228.8274383544922 L 221.7603302001953 227.9265022277832 L 221.4379425048828 227.02294921875 L 221.1073760986328 226.11618423461914 L 220.7685546875 225.20559692382812 L 220.42147827148438 224.29058074951172 L 220.0661163330078 223.37053680419922 L 219.702392578125 222.44485473632812 L 219.330322265625 221.51293182373047 L 218.9498291015625 220.57416534423828 L 218.5609130859375 219.62794876098633 L 218.16351318359375 218.67367935180664 L 217.7576141357422 217.71075057983398 L 217.34317016601562 216.73855590820312 L 216.92015075683594 215.7564926147461 L 216.488525390625 214.76395797729492 L 216.04824829101562 213.7603416442871 L 215.5992889404297 212.74504470825195 L 215.14161682128906 211.71746063232422 L 214.67520141601562 210.67698287963867 L 214.1999969482422 209.62300872802734 L 215.13540649414062 209.38713455200195 L 216.06954956054688 209.13378524780273 L 217.00247192382812 208.86366271972656 L 217.93421936035156 208.57746505737305 L 218.8648681640625 208.27588653564453 L 219.79443359375 207.95963287353516 L 220.72300720214844 207.62939834594727 L 221.6505889892578 207.28588485717773 L 222.5772705078125 206.9297866821289 L 223.5030975341797 206.56180953979492 L 224.4281005859375 206.18264770507812 L 225.3523406982422 205.7930030822754 L 226.27587890625 205.39356994628906 L 227.19874572753906 204.98505401611328 L 228.12100219726562 204.56814575195312 L 229.04270935058594 204.14355087280273 L 229.96389770507812 203.71196746826172 L 230.88462829589844 203.2740936279297 L 231.80494689941406 202.83062744140625 L 232.72491455078125 202.38226699829102 L 233.64456176757812 201.92971420288086 L 234.56396484375 201.4736671447754 L 235.483154296875 201.01482391357422 L 236.40219116210938 200.55388259887695 L 237.3211212158203 200.09154510498047 L 238.24000549316406 199.62850952148438 L 239.15887451171875 199.16547012329102 L 240.07778930664062 198.70313262939453 L 240.99681091308594 198.24219512939453 L 241.9159698486328 197.7833480834961 L 242.8353271484375 197.32730102539062 L 243.7549285888672 196.87474822998047 L 244.67483520507812 196.4263916015625 L 245.5950927734375 195.98292541503906 L 246.5157470703125 195.5450439453125 L 247.43685913085938 195.11346435546875 L 248.35845947265625 194.6888656616211 L 249.28060913085938 194.27196502685547 L 250.203369140625 193.8634490966797 L 251.1267852783203 193.4640121459961 L 252.0509033203125 193.07437133789062 L 252.97576904296875 192.69520568847656 L 253.9014434814453 192.3272247314453 L 254.82797241210938 191.97113037109375 L 255.75540161132812 191.62761688232422 L 256.68377685546875 191.2973861694336 L 257.6131896972656 190.98113250732422 L 258.54364013671875 190.67955017089844 L 259.4751892089844 190.3933563232422 L 260.40789794921875 190.12322998046875 L 261.3418273925781 189.86988067626953 L 262.2770080566406 189.6340103149414 L 261.4667663574219 189.02008819580078 L 260.64990234375 188.43805694580078 L 259.8265380859375 187.88701629638672 L 258.99676513671875 187.3660888671875 L 258.1607360839844 186.87437438964844 L 257.3185119628906 186.4109878540039 L 256.4702453613281 185.97502899169922 L 255.6160430908203 185.56562042236328 L 254.7560272216797 185.18185424804688 L 253.89028930664062 184.82286071777344 L 253.01895141601562 184.48773193359375 L 252.1421356201172 184.17559051513672 L 251.25994873046875 183.88553619384766 L 250.37249755859375 183.6166763305664 L 249.47991943359375 183.36813354492188 L 248.58229064941406 183.13900756835938 L 247.6797637939453 182.92840576171875 L 246.77243041992188 182.73544311523438 L 245.8603973388672 182.55921936035156 L 244.9438018798828 182.39885711669922 L 244.0227508544922 182.2534637451172 L 243.09735107421875 182.12213897705078 L 242.16770935058594 182.00399780273438 L 241.23394775390625 181.89815521240234 L 240.2961883544922 181.8037109375 L 239.3545379638672 181.71977996826172 L 238.4091033935547 181.6454620361328 L 237.4600067138672 181.5798797607422 L 236.50735473632812 181.5221405029297 L 235.55126953125 181.47135162353516 L 234.59185791015625 181.4266128540039 L 233.6292266845703 181.38704681396484 L 232.66351318359375 181.35175323486328 L 231.69482421875 181.31985473632812 L 230.72325134277344 181.29044342041016 L 229.74893188476562 181.26264190673828 L 228.77195739746094 181.2355499267578 L 227.79246520996094 181.20828247070312 L 226.81056213378906 181.1799545288086 L 225.82635498046875 181.14966583251953 L 224.8399658203125 181.11652374267578 L 223.85150146484375 181.07965087890625 L 222.86106872558594 181.03813934326172 L 221.86880493164062 180.9911117553711 L 220.8748016357422 180.93767547607422 L 219.87918090820312 180.87693786621094 L 218.88206481933594 180.8080062866211 L 217.883544921875 180.72998809814453 L 216.8837432861328 180.64200592041016 L 215.88279724121094 180.54315185546875 L 214.8807830810547 180.4325408935547 L 213.8778533935547 180.30928802490234 L 212.87408447265625 180.17250061035156 L 211.86961364746094 180.0212860107422 L 210.8645477294922 179.85475158691406 L 209.85899353027344 179.67200469970703 L 209.67398071289062 178.83052825927734 L 209.4915008544922 177.97097778320312 L 209.3116455078125 177.09403228759766 L 209.13446044921875 176.20033264160156 L 208.9600372314453 175.29054260253906 L 208.78842163085938 174.3653106689453 L 208.6197052001953 173.42530822753906 L 208.4539337158203 172.47118377685547 L 208.29119873046875 171.5035858154297 L 208.1315460205078 170.52318572998047 L 207.97506713867188 169.5306396484375 L 207.82180786132812 168.52659606933594 L 207.67185974121094 167.51171112060547 L 207.5252685546875 166.4866485595703 L 207.38211059570312 165.45206451416016 L 207.24246215820312 164.40860748291016 L 207.1063995361328 163.35694885253906 L 206.97396850585938 162.2977294921875 L 206.84524536132812 161.2316131591797 L 206.72030639648438 160.15926361083984 L 206.59922790527344 159.08132934570312 L 206.4820556640625 157.99846649169922 L 206.36886596679688 156.9113311767578 L 206.25973510742188 155.82059478759766 L 206.15472412109375 154.72689056396484 L 206.0539093017578 153.63089752197266 L 205.9573516845703 152.53325653076172 L 205.86512756347656 151.43463134765625 L 205.7772979736328 150.33567810058594 L 205.6939239501953 149.237060546875 L 205.61509704589844 148.13941955566406 L 205.54087829589844 147.04342651367188 L 205.47132873535156 145.9497299194336 L 205.40650939941406 144.8589859008789 L 205.3465118408203 143.77185821533203 L 205.2913818359375 142.68900299072266 L 205.2412109375 141.61107635498047 L 205.196044921875 140.53872680664062 L 205.1559600830078 139.47261810302734 L 205.1210479736328 138.4134063720703 L 205.09133911132812 137.36174774169922 L 205.06692504882812 136.31830596923828 L 205.04786682128906 135.28372955322266 L 205.03424072265625 134.2586669921875 L 205.02610778808594 133.24380493164062 L 205.02352905273438 132.23976135253906 L 205.02659606933594 131.24722290039062 L 205.03536987304688 130.26683044433594 L 205.04991149902344 129.29925537109375 L 205.07028198242188 128.3451385498047 L 205.0965576171875 127.4051513671875 L 205.1288299560547 126.47993469238281 L 205.16712951660156 125.57015991210938 L 205.2115478515625 124.67646789550781 L 205.26214599609375 123.79953002929688 L 205.31900024414062 122.94000244140625 L 204.78237915039062 123.67640686035156 L 204.24366760253906 124.425048828125 L 203.70318603515625 125.18560791015625 L 203.16127014160156 125.95773315429688 L 202.61822509765625 126.7410888671875 L 202.07437133789062 127.53532409667969 L 201.53004455566406 128.340087890625 L 200.9855499267578 129.1550750732422 L 200.4412078857422 129.9799041748047 L 199.89735412597656 130.8142547607422 L 199.35427856445312 131.65777587890625 L 198.8123321533203 132.5101318359375 L 198.27183532714844 133.3709716796875 L 197.7330780029297 134.23995971679688 L 197.1964111328125 135.11676788330078 L 196.66213989257812 136.00102996826172 L 196.13058471679688 136.89241790771484 L 195.60208129882812 137.79058837890625 L 195.07691955566406 138.6951904296875 L 194.55545043945312 139.60589599609375 L 194.03799438476562 140.5223617553711 L 193.52484130859375 141.44422912597656 L 193.01634216308594 142.37117767333984 L 192.51280212402344 143.3028564453125 L 192.01454162597656 144.2389144897461 L 191.5218963623047 145.17902374267578 L 191.03515625 146.12284088134766 L 190.55467224121094 147.07001495361328 L 190.08074951171875 148.02021026611328 L 189.6137237548828 148.97308349609375 L 189.1538848876953 149.9282989501953 L 188.7015838623047 150.88550567626953 L 188.2571258544922 151.84436798095703 L 187.82083129882812 152.80453491210938 L 187.39303588867188 153.7656707763672 L 186.97402954101562 154.7274398803711 L 186.5641632080078 155.68949127197266 L 186.1637420654297 156.6514892578125 L 185.77308654785156 157.61309051513672 L 185.39251708984375 158.57394409179688 L 185.02236938476562 159.53372192382812 L 184.66294860839844 160.49207305908203 L 184.3145751953125 161.4486541748047 L 183.97756958007812 162.40313720703125 L 183.65225219726562 163.35516357421875 L 183.3389434814453 164.30440521240234 L 183.03797912597656 165.25050354003906 L 182.74966430664062 166.1931381225586 L 182.4743194580078 167.13195037841797 L 182.21226501464844 168.06659698486328 L 181.9638214111328 168.9967498779297 L 181.72930908203125 169.92206573486328 L 181.50906372070312 170.8421859741211 L 181.3033905029297 171.7567901611328 L 181.1125946044922 172.66551971435547 L 180.93702697753906 173.5680389404297 L 180.77699279785156 174.46400451660156 L 179.69700622558594 174.52099609375 L 178.62571716308594 174.56198120117188 L 177.5628204345703 174.58728790283203 L 176.50804138183594 174.59727478027344 L 175.46104431152344 174.59227752685547 L 174.42153930664062 174.57263946533203 L 173.3892364501953 174.5386962890625 L 172.3638153076172 174.49080657958984 L 171.34498596191406 174.4292984008789 L 170.3324432373047 174.3545150756836 L 169.3258819580078 174.26680755615234 L 168.32501220703125 174.16651916503906 L 167.32952880859375 174.0539779663086 L 166.339111328125 173.9295425415039 L 165.35348510742188 173.79354858398438 L 164.372314453125 173.6463394165039 L 163.3953399658203 173.48825073242188 L 162.42222595214844 173.31964111328125 L 161.4526824951172 173.14083862304688 L 160.4864044189453 172.95218658447266 L 159.52310180664062 172.75403594970703 L 158.5624542236328 172.5467300415039 L 157.6041717529297 172.33059692382812 L 156.64794921875 172.10599517822266 L 155.6934814453125 171.87326049804688 L 154.740478515625 171.63272857666016 L 153.7886199951172 171.38475799560547 L 152.83763122558594 171.12967681884766 L 151.88717651367188 170.86783599853516 L 150.93698120117188 170.59957885742188 L 149.98672485351562 170.3252410888672 L 149.03611755371094 170.045166015625 L 148.08485412597656 169.75970458984375 L 147.1326446533203 169.46918487548828 L 146.1791534423828 169.17396545410156 L 145.22410583496094 168.87438201904297 L 144.26719665527344 168.57077026367188 L 143.30812072753906 168.26348114013672 L 142.34658813476562 167.9528579711914 L 141.3822784423828 167.6392364501953 L 140.41488647460938 167.32296752929688 L 139.4441375732422 167.00438690185547 L 138.46969604492188 166.68384552001953 L 137.4912872314453 166.3616714477539 L 136.5085906982422 166.03822326660156 L 135.52133178710938 165.71382904052734 L 134.5291748046875 165.3888397216797 L 133.53182983398438 165.0635986328125 L 132.5290069580078 164.7384490966797 L 131.5203857421875 164.41372680664062 L 130.50567626953125 164.08978271484375 L 129.48458862304688 163.76695251464844 L 128.456787109375 163.4455795288086 L 127.4219970703125 163.12600708007812 L 127.98159790039062 163.98932647705078 L 128.5501708984375 164.8467254638672 L 129.12767028808594 165.69812774658203 L 129.71400451660156 166.54346466064453 L 130.30909729003906 167.3826446533203 L 130.91285705566406 168.21559143066406 L 131.52525329589844 169.04222869873047 L 132.1461639404297 169.86248016357422 L 132.77552795410156 170.67626953125 L 133.4132843017578 171.48350524902344 L 134.05934143066406 172.28412628173828 L 134.713623046875 173.0780487060547 L 135.3760528564453 173.8651885986328 L 136.04656982421875 174.64546966552734 L 136.72508239746094 175.41881561279297 L 137.41151428222656 176.18514251708984 L 138.10580444335938 176.9443817138672 L 138.807861328125 177.69644927978516 L 139.5176239013672 178.44126892089844 L 140.23500061035156 179.1787567138672 L 140.9599151611328 179.90884399414062 L 141.6923065185547 180.63143920898438 L 142.43209838867188 181.34647369384766 L 143.17919921875 182.05387115478516 L 143.9335479736328 182.75354766845703 L 144.69505310058594 183.44542694091797 L 145.46365356445312 184.12942504882812 L 146.2392578125 184.80547332763672 L 147.0218048095703 185.47348022460938 L 147.81121826171875 186.13338470458984 L 148.607421875 186.78509521484375 L 149.4103240966797 187.42853546142578 L 150.21986389160156 188.06362915039062 L 151.03594970703125 188.69029998779297 L 151.85853576660156 189.3084716796875 L 152.68751525878906 189.91805267333984 L 153.52284240722656 190.51898193359375 L 154.36441040039062 191.11116790771484 L 155.212158203125 191.6945343017578 L 156.0659942626953 192.26900482177734 L 157.6063690185547 193.43275451660156 L 158.5970001220703 194.99100494384766 L 158.8398895263672 195.35607147216797 L 159.40777587890625 195.99224090576172 L 160.2263946533203 196.83930206298828 L 161.22145080566406 197.83707427978516 L 162.31866455078125 198.92535781860352 L 163.4437713623047 200.04396438598633 L 164.52249145507812 201.13269424438477 L 165.48056030273438 202.1313591003418 L 166.24368286132812 202.97976303100586 L 166.73757934570312 203.6177101135254 L 166.88800048828125 203.9850082397461 L 166.64752197265625 205.05041885375977 L 166.3866729736328 206.08969497680664 L 166.10610961914062 207.10377502441406 L 165.80654907226562 208.0935935974121 L 165.48867797851562 209.0600929260254 L 165.15318298339844 210.00420761108398 L 164.80076599121094 210.92687606811523 L 164.4320831298828 211.82903289794922 L 164.04786682128906 212.71162033081055 L 163.64877319335938 213.57556915283203 L 163.2355194091797 214.42182159423828 L 162.80877685546875 215.25131225585938 L 162.36924743652344 216.06497955322266 L 161.9176025390625 216.86376190185547 L 161.45455932617188 217.64859771728516 L 160.98080444335938 218.42041778564453 L 160.4969940185547 219.18016815185547 L 160.0038604736328 219.92877960205078 L 159.5020751953125 220.66719436645508 L 158.99232482910156 221.39634323120117 L 158.47531127929688 222.11717224121094 L 157.9517059326172 222.83060836791992 L 157.42222595214844 223.53759765625 L 156.88754272460938 224.23907470703125 L 156.3483428955078 224.93597793579102 L 155.80532836914062 225.6292381286621 L 155.25918579101562 226.3198013305664 L 154.7106170654297 227.00860214233398 L 154.16029357910156 227.69657516479492 L 153.60890197753906 228.38465881347656 L 153.05714416503906 229.07379150390625 L 152.50572204589844 229.76491165161133 L 151.95530700683594 230.45895385742188 L 151.40660095214844 231.15685844421387 L 150.8602752685547 231.85955810546875 L 150.31704711914062 232.56799507141113 L 149.777587890625 233.2831039428711 L 149.2425994873047 234.00582313537598 L 148.71275329589844 234.7370891571045 L 148.18875122070312 235.47784042358398 L 147.67129516601562 236.22901153564453 L 147.16107177734375 236.99154472351074 L 146.65875244140625 237.76637268066406 L 146.1650390625 238.55443382263184 L 145.6806182861328 239.35666847229004 L 145.20619201660156 240.17400932312012 L 144.742431640625 241.00739669799805 L 144.29005432128906 241.85776901245117 L 143.8497314453125 242.72606086730957 L 143.42214965820312 243.61320877075195 L 143.0080108642578 244.5201530456543 L 142.6079864501953 245.4478302001953 L 142.22279357910156 246.3971767425537 L 141.8531036376953 247.36913108825684 L 141.49961853027344 248.36462879180908 L 141.16302490234375 249.3846092224121 L 140.843994140625 250.4300079345703 Z" fill="#33FF57" stroke="none" stroke-width="2" /><path d="M 7.980000019073486 261.43700808286667 L 8.989509582519531 261.42912471294403 L 9.999008178710938 261.4201480746269 L 11.00849437713623 261.41007816791534 L 12.017967224121094 261.39891505241394 L 13.027425765991211 261.38665890693665 L 14.03686809539795 261.3733097910881 L 15.046293258666992 261.35886776447296 L 16.055702209472656 261.3433329463005 L 17.06509017944336 261.3267053961754 L 18.074459075927734 261.30898517370224 L 19.083805084228516 261.29017239809036 L 20.093130111694336 261.2702672481537 L 21.10243034362793 261.2492696046829 L 22.111705780029297 261.2271797657013 L 23.120956420898438 261.2039977312088 L 24.130178451538086 261.17972350120544 L 25.139373779296875 261.1543573141098 L 26.14853858947754 261.1278991699219 L 27.157672882080078 261.10034918785095 L 28.16677474975586 261.07170736789703 L 29.175846099853516 261.0419739484787 L 30.18488121032715 261.01114892959595 L 31.19388198852539 260.97923243045807 L 32.20284652709961 260.94622457027435 L 33.21177291870117 260.9121252298355 L 34.22066116333008 260.8769347667694 L 35.22951126098633 260.84065306186676 L 36.238319396972656 260.80328035354614 L 37.24708557128906 260.76481676101685 L 38.25580978393555 260.7252621650696 L 39.264488220214844 260.6846168041229 L 40.27312088012695 260.6428806781769 L 41.281707763671875 260.60005390644073 L 42.29024887084961 260.55613672733307 L 43.29874038696289 260.5111290216446 L 44.30717849731445 260.4650309085846 L 45.31557083129883 260.41784250736237 L 46.32390594482422 260.3695640563965 L 47.332191467285156 260.3201953172684 L 48.34041976928711 260.2697367668152 L 49.348594665527344 260.21818804740906 L 50.356712341308594 260.16554975509644 L 51.364768981933594 260.11182141304016 L 52.37276840209961 260.057003736496 L 53.38071060180664 260.0010962486267 L 54.388587951660156 259.94409918785095 L 55.39640426635742 259.88601303100586 L 56.40415573120117 259.8268373012543 L 57.411842346191406 259.76657247543335 L 58.419464111328125 259.7052185535431 L 59.42701721191406 259.6427752971649 L 60.434505462646484 259.57924342155457 L 61.44192123413086 259.5146224498749 L 62.44926834106445 259.448912858963 L 63.45654296875 259.3821144104004 L 64.4637451171875 259.3142273426056 L 65.47087097167969 259.2452516555786 L 66.4779281616211 259.1751878261566 L 67.48490142822266 259.10403537750244 L 68.4917984008789 259.03179478645325 L 69.49861907958984 258.95846605300903 L 70.50536346435547 258.8840489387512 L 71.51202392578125 258.80854415893555 L 72.51860046386719 258.73195123672485 L 73.52510070800781 258.6542706489563 L 74.53150939941406 258.5755021572113 L 75.53783416748047 258.495646238327 L 76.54407501220703 258.4147026538849 L 77.55022430419922 258.3326714038849 L 78.55628967285156 258.2495527267456 L 79.56226348876953 258.1653470993042 L 80.56814575195312 258.0800542831421 L 81.57393646240234 257.9936738014221 L 82.57963562011719 257.9062066078186 L 83.58523559570312 257.81765270233154 L 84.59074401855469 257.7280116081238 L 85.59615325927734 257.63728380203247 L 86.6014633178711 257.5454692840576 L 87.60667419433594 257.4525680541992 L 88.6117935180664 257.35858058929443 L 89.6167984008789 257.2635064125061 L 90.62171173095703 257.1673460006714 L 91.62651824951172 257.0700993537903 L 92.63121795654297 256.9717664718628 L 93.63581085205078 256.8723473548889 L 94.64029693603516 256.7718424797058 L 95.64468383789062 256.6702518463135 L 96.6489486694336 256.56757497787476 L 97.65310668945312 256.4638123512268 L 98.65715789794922 256.3589644432068 L 99.66109466552734 256.25303077697754 L 100.6649169921875 256.1460118293762 L 101.66862487792969 256.0379071235657 L 102.67221069335938 255.92871761322021 L 103.67568969726562 255.81844234466553 L 104.67903900146484 255.70708227157593 L 105.6822738647461 255.59463739395142 L 106.68539428710938 255.48110723495483 L 107.68838500976562 255.36649227142334 L 108.69125366210938 255.25079250335693 L 109.69400024414062 255.13400793075562 L 110.97899627685547 254.71700811386108 L 111.49099731445312 252.71200847625732 L 111.43617248535156 251.6992654800415 L 111.38134765625 250.6865234375 L 111.3265151977539 249.6737823486328 L 111.27169036865234 248.66104125976562 L 111.21686553955078 247.64830112457275 L 111.16204071044922 246.63556098937988 L 111.10721588134766 245.62282180786133 L 111.0523910522461 244.61008262634277 L 110.99756622314453 243.59734535217285 L 110.94274139404297 242.58460807800293 L 110.8879165649414 241.57187271118164 L 110.83309173583984 240.55913543701172 L 110.77827453613281 239.54640007019043 L 110.72344970703125 238.53366661071777 L 110.66862487792969 237.52093315124512 L 110.61380767822266 236.50819969177246 L 110.5589828491211 235.4954662322998 L 110.50416564941406 234.48273468017578 L 110.4493408203125 233.47000312805176 L 110.39452362060547 232.45727348327637 L 110.33970642089844 231.44454383850098 L 110.28488159179688 230.43181610107422 L 110.23006439208984 229.41908645629883 L 110.17524719238281 228.4063606262207 L 110.12042999267578 227.39363479614258 L 110.06561279296875 226.38090896606445 L 110.01079559326172 225.36818313598633 L 109.95597839355469 224.35546112060547 L 109.90116119384766 223.34273529052734 L 109.84634399414062 222.33001327514648 L 109.7915267944336 221.31729125976562 L 109.73670959472656 220.30457305908203 L 109.68189239501953 219.29185104370117 L 109.6270751953125 218.27913284301758 L 109.57225799560547 217.26641464233398 L 109.51744079589844 216.25370025634766 L 109.46263122558594 215.24098205566406 L 109.4078140258789 214.22826766967773 L 109.35299682617188 213.2155532836914 L 109.29817962646484 212.20283889770508 L 109.24337005615234 211.19012832641602 L 109.18855285644531 210.17741775512695 L 109.13373565673828 209.1647071838379 L 109.07892608642578 208.15199661254883 L 109.02410888671875 207.13928604125977 L 108.96929168701172 206.12657928466797 L 108.91448211669922 205.11387252807617 L 108.85966491699219 204.10116958618164 L 108.80484771728516 203.08846282958984 L 108.75003814697266 202.0757598876953 L 108.69522094726562 201.06306076049805 L 108.6404037475586 200.05035781860352 L 108.5855941772461 199.03765869140625 L 108.53077697753906 198.02495574951172 L 108.47596740722656 197.01226043701172 L 108.42115020751953 195.99956512451172 L 108.3663330078125 194.98686981201172 L 108.3115234375 193.97417449951172 L 108.25670623779297 192.96147918701172 L 108.20188903808594 191.94879150390625 L 108.14707946777344 190.93609619140625 L 108.0922622680664 189.92340850830078 L 108.03744506835938 188.9107208251953 L 107.98263549804688 187.89803314208984 L 107.92781829833984 186.88534545898438 L 107.87300109863281 185.8726577758789 L 107.81818389892578 184.85997772216797 L 107.76337432861328 183.84729766845703 L 107.70855712890625 182.8346176147461 L 107.65373992919922 181.82193756103516 L 107.59892272949219 180.80925750732422 L 107.54410552978516 179.79657745361328 L 107.48929595947266 178.78390502929688 L 107.43447875976562 177.77122497558594 L 107.3796615600586 176.75855255126953 L 107.32484436035156 175.74588012695312 L 107.27002716064453 174.73320770263672 L 107.2152099609375 173.72054290771484 L 107.16039276123047 172.70787048339844 L 107.1055679321289 171.69520568847656 L 107.05075073242188 170.6825408935547 L 106.99593353271484 169.6698760986328 L 106.94111633300781 168.65721130371094 L 106.88629913330078 167.6445541381836 L 106.83147430419922 166.63188934326172 L 106.77665710449219 165.61923217773438 L 106.72183990478516 164.60657501220703 L 106.6670150756836 163.5939178466797 L 106.61219787597656 162.58126831054688 L 106.557373046875 161.56861114501953 L 106.50254821777344 160.55596160888672 L 106.4477310180664 159.5433120727539 L 106.39290618896484 158.5306625366211 L 106.33808135986328 157.5180206298828 L 106.28325653076172 156.50537109375 L 106.22843933105469 155.49272918701172 L 106.17361450195312 154.48008728027344 L 106.11878967285156 153.46744537353516 L 106.06396484375 152.4548110961914 L 106.00914001464844 151.44216918945312 L 105.95430755615234 150.42953491210938 L 105.89948272705078 149.41690063476562 L 105.84465789794922 148.40426635742188 L 105.78982543945312 147.39163970947266 L 105.73500061035156 146.3790054321289 L 105.54900360107422 144.85950469970703 L 104.87100219726562 143.56201171875 L 102.44000244140625 142.66800689697266 L 101.4385986328125 142.53412628173828 L 100.43685913085938 142.40524291992188 L 99.43478393554688 142.28131103515625 L 98.43238830566406 142.16229248046875 L 97.42967224121094 142.04814910888672 L 96.42665100097656 141.93882751464844 L 95.42332458496094 141.83428955078125 L 94.4197006225586 141.7344970703125 L 93.4157943725586 141.63941192626953 L 92.41161346435547 141.54898071289062 L 91.40715026855469 141.46317291259766 L 90.40243530273438 141.3819351196289 L 89.3974609375 141.30523681640625 L 88.3922348022461 141.23302459716797 L 87.38677215576172 141.16526794433594 L 86.3810806274414 141.10191345214844 L 85.37516021728516 141.04293060302734 L 84.3690185546875 140.98826599121094 L 83.36267852783203 140.9378890991211 L 82.35612487792969 140.89175415039062 L 81.3493881225586 140.8498077392578 L 80.34246063232422 140.81202697753906 L 79.33535766601562 140.77835845947266 L 78.32807922363281 140.74876403808594 L 77.32064056396484 140.7231903076172 L 76.31304931640625 140.7016143798828 L 75.30530548095703 140.6839828491211 L 74.29742431640625 140.67025756835938 L 73.28941345214844 140.66038513183594 L 72.2812728881836 140.6543426513672 L 71.27302551269531 140.6520767211914 L 70.26466369628906 140.65354919433594 L 69.2562026977539 140.6587142944336 L 68.24764251708984 140.6675262451172 L 67.23899841308594 140.6799545288086 L 66.23028564453125 140.69595336914062 L 65.22149658203125 140.7154769897461 L 64.21263885498047 140.7384796142578 L 63.2037353515625 140.76493072509766 L 62.19478225708008 140.79478454589844 L 61.185787200927734 140.82798767089844 L 60.17676544189453 140.86451721191406 L 59.16771697998047 140.9043197631836 L 58.158653259277344 140.94734954833984 L 57.14958190917969 140.9935760498047 L 56.140506744384766 141.0429458618164 L 55.13144302368164 141.09542846679688 L 54.12239074707031 141.1509780883789 L 53.113365173339844 141.20954132080078 L 52.104366302490234 141.27108764648438 L 51.09540557861328 141.33557891845703 L 50.08649444580078 141.40296173095703 L 49.077632904052734 141.47320556640625 L 48.06883239746094 141.54625701904297 L 47.06010437011719 141.62207794189453 L 46.051448822021484 141.70063018798828 L 45.04288101196289 141.78187561035156 L 44.03440475463867 141.86576080322266 L 43.02602767944336 141.9522476196289 L 42.017757415771484 142.04129791259766 L 41.00960159301758 142.13286590576172 L 40.00157165527344 142.2269058227539 L 38.99367141723633 142.3233871459961 L 37.98590850830078 142.4222640991211 L 36.978294372558594 142.52349090576172 L 35.97083282470703 142.62702178955078 L 34.963531494140625 142.73282623291016 L 33.956398010253906 142.84085845947266 L 32.94944763183594 142.95106506347656 L 31.942676544189453 143.06341552734375 L 30.936100006103516 143.17787170410156 L 29.929723739624023 143.29438018798828 L 28.923555374145508 143.41290283203125 L 27.9176025390625 143.5334014892578 L 26.911874771118164 143.65583038330078 L 25.906375885009766 143.7801513671875 L 24.9011173248291 143.90631866455078 L 23.89610481262207 144.03429412841797 L 22.891347885131836 144.16402435302734 L 21.886850357055664 144.2954864501953 L 20.882625579833984 144.42861938476562 L 19.87867546081543 144.5634002685547 L 18.87501335144043 144.69976806640625 L 17.87164306640625 144.8376922607422 L 16.868572235107422 144.9771270751953 L 15.865811347961426 145.11803436279297 L 14.86336612701416 145.26036834716797 L 13.861244201660156 145.40409088134766 L 12.859454154968262 145.54915618896484 L 11.858003616333008 145.69551849365234 L 10.856900215148926 145.84314727783203 L 9.856151580810547 145.9919891357422 L 8.855765342712402 146.14200592041016 L 7.855749607086182 146.29315948486328 L 6.856111526489258 146.4454116821289 L 5.85685920715332 146.59870147705078 L 4.857999801635742 146.7530059814453 L 2.7920000553131104 147.54700469970703 L 2.0840001106262207 149.95201110839844 L 2.037950038909912 151.03372192382812 L 1.992763876914978 152.11544036865234 L 1.9483866691589355 153.19715881347656 L 1.9047638177871704 154.2788848876953 L 1.8618407249450684 155.36062622070312 L 1.8195626735687256 156.44237518310547 L 1.7778749465942383 157.52413177490234 L 1.7367230653762817 158.6059112548828 L 1.696052074432373 159.68770599365234 L 1.655807614326477 160.76951599121094 L 1.6159347295761108 161.85134887695312 L 1.5763790607452393 162.93321228027344 L 1.5370856523513794 164.0150909423828 L 1.4980000257492065 165.09700775146484 L 1.461316466331482 166.1132049560547 L 1.4246844053268433 167.1295623779297 L 1.3881473541259766 168.1460723876953 L 1.3517485857009888 169.16272735595703 L 1.3155317306518555 170.1795196533203 L 1.2795401811599731 171.19644927978516 L 1.2438174486160278 172.21350860595703 L 1.2084070444107056 173.2306900024414 L 1.1733523607254028 174.24798583984375 L 1.1386969089508057 175.26538848876953 L 1.1044842004776 176.28289794921875 L 1.070757508277893 177.30050659179688 L 1.0375605821609497 178.31820678710938 L 1.0049368143081665 179.33599090576172 L 0.9729295969009399 180.35385131835938 L 0.941582441329956 181.37178802490234 L 0.9109387993812561 182.3897933959961 L 0.8810421228408813 183.4078598022461 L 0.8519359827041626 184.4259796142578 L 0.8236637711524963 185.44414520263672 L 0.7962689995765686 186.4623565673828 L 0.7697951197624207 187.48059844970703 L 0.7442856431007385 188.4988784790039 L 0.7197839617729187 189.51718139648438 L 0.6963335871696472 190.5354995727539 L 0.6739779710769653 191.5538330078125 L 0.6527606844902039 192.5721664428711 L 0.6327250599861145 193.5904998779297 L 0.6139146685600281 194.60883331298828 L 0.5963729619979858 195.6271514892578 L 0.5801433324813843 196.64545440673828 L 0.565269410610199 197.66372680664062 L 0.5517945289611816 198.68196868896484 L 0.5397621989250183 199.70017623901367 L 0.529215931892395 200.71834182739258 L 0.5201991200447083 201.73645401000977 L 0.5127553343772888 202.75451278686523 L 0.506928026676178 203.77251052856445 L 0.5027605891227722 204.79044342041016 L 0.5002965331077576 205.80830001831055 L 0.49957937002182007 206.82607650756836 L 0.500652551651001 207.84376525878906 L 0.5035595297813416 208.86136627197266 L 0.5083438158035278 209.87886810302734 L 0.5150488615036011 210.8962631225586 L 0.5237181186676025 211.91354751586914 L 0.5343950390815735 212.93071746826172 L 0.5471231937408447 213.9477653503418 L 0.5619459748268127 214.96468353271484 L 0.5789068341255188 215.9814682006836 L 0.5980493426322937 216.99811172485352 L 0.6194168329238892 218.01460647583008 L 0.6430529356002808 219.03094863891602 L 0.6690009832382202 220.0471305847168 L 0.6973045468330383 221.06314849853516 L 0.7280070781707764 222.07899475097656 L 0.7611520290374756 223.09466552734375 L 0.7967828512191772 224.11014938354492 L 0.8349429965019226 225.1254425048828 L 0.8756760358810425 226.14054107666016 L 0.9190253615379333 227.1554412841797 L 0.9650344848632812 228.17012786865234 L 1.0137468576431274 229.18460083007812 L 1.0652060508728027 230.19885635375977 L 1.119455337524414 231.21288299560547 L 1.176538348197937 232.2266788482666 L 1.236498475074768 233.240234375 L 1.2993791103363037 234.25354385375977 L 1.365224003791809 235.26660346984863 L 1.4340764284133911 236.2794075012207 L 1.5059797763824463 237.2919464111328 L 1.5809777975082397 238.3042163848877 L 1.6591136455535889 239.31621170043945 L 1.7404310703277588 240.32792282104492 L 1.8249733448028564 241.33934783935547 L 1.9127839803695679 242.35047912597656 L 2.003906488418579 243.3613109588623 L 2.098384380340576 244.37183570861816 L 2.196261167526245 245.38204956054688 L 2.2975800037384033 246.3919439315796 L 2.4023847579956055 247.40151500701904 L 2.510718822479248 248.4107542037964 L 2.6226255893707275 249.41965770721436 L 2.7381482124328613 250.42821788787842 L 2.857330799102783 251.43642902374268 L 2.9802165031433105 252.44428539276123 L 3.1068484783172607 253.45178031921387 L 3.2372708320617676 254.45890855789185 L 3.3715267181396484 255.46566343307495 L 3.5096595287323 256.4720387458801 L 3.651712656021118 257.4780282974243 L 3.797729969024658 258.48362588882446 L 3.9477546215057373 259.48882603645325 L 4.101830005645752 260.49362206459045 L 4.260000228881836 261.49800807237625 L 5.675333499908447 260.9339339733124 L 7.183333396911621 260.7174154520035 L 8.699999809265137 260.8600080013275 Z" fill="#3357FF" stroke="none" stroke-width="2" /></g></svg>